<svg width="35" height="35" viewBox="0 0 35 35" fill="none" xmlns="http://www.w3.org/2000/svg">
<path d="M26.663 31.7562C24.983 33.3922 23.1488 33.1338 21.3831 32.3589C19.5146 31.5668 17.8004 31.5324 15.829 32.3589C13.3605 33.4266 12.0577 33.1166 10.5834 31.7562C2.21792 23.0946 3.45218 9.904 12.9491 9.42184C15.2633 9.54238 16.8747 10.6961 18.2289 10.7994C20.2517 10.3862 22.1888 9.19798 24.3488 9.35296C26.9373 9.5596 28.8915 10.5928 30.1772 12.4526C24.8287 15.6727 26.0973 22.7502 31 24.7305C30.0229 27.3135 28.7543 29.8793 26.6458 31.7735L26.663 31.7562ZM18.0575 9.31852C17.8004 5.47845 20.9031 2.30996 24.4688 2C24.9659 6.44277 20.4574 9.74902 18.0575 9.31852Z" fill="black"/>
</svg>
