<svg width="14" height="13" viewBox="0 0 14 13" fill="none" xmlns="http://www.w3.org/2000/svg">
<path d="M6.94444 12.7431L5.9375 11.8403C4.76852 10.787 3.80208 9.87847 3.03819 9.11458C2.27431 8.3507 1.66667 7.66782 1.21528 7.06597C0.763889 6.45255 0.445602 5.8912 0.260417 5.38194C0.0868055 4.87269 0 4.35185 0 3.81944C0 2.73148 0.364584 1.82292 1.09375 1.09375C1.82292 0.364583 2.73148 0 3.81945 0C4.4213 0 4.99421 0.127315 5.53819 0.381945C6.08218 0.636574 6.55093 0.995371 6.94444 1.45833C7.33796 0.995371 7.80671 0.636574 8.35069 0.381945C8.89468 0.127315 9.46759 0 10.0694 0C11.1574 0 12.066 0.364583 12.7951 1.09375C13.5243 1.82292 13.8889 2.73148 13.8889 3.81944C13.8889 4.35185 13.7963 4.87269 13.6111 5.38194C13.4375 5.8912 13.125 6.45255 12.6736 7.06597C12.2222 7.66782 11.6146 8.3507 10.8507 9.11458C10.0868 9.87847 9.12037 10.787 7.95139 11.8403L6.94444 12.7431ZM6.94444 10.8681C8.05556 9.87269 8.96991 9.02199 9.6875 8.31597C10.4051 7.59838 10.9722 6.97917 11.3889 6.45833C11.8056 5.92593 12.0949 5.45718 12.2569 5.05208C12.419 4.63542 12.5 4.22454 12.5 3.81944C12.5 3.125 12.2685 2.5463 11.8056 2.08333C11.3426 1.62037 10.7639 1.38889 10.0694 1.38889C9.52546 1.38889 9.02199 1.54514 8.55903 1.85764C8.09607 2.15857 7.11819 3.51859 6.94458 3.99312C6.77097 3.51859 5.79282 2.15857 5.32986 1.85764C4.8669 1.54514 4.36343 1.38889 3.81945 1.38889C3.125 1.38889 2.5463 1.62037 2.08333 2.08333C1.62037 2.5463 1.38889 3.125 1.38889 3.81944C1.38889 4.22454 1.46991 4.63542 1.63194 5.05208C1.79398 5.45718 2.08333 5.92593 2.5 6.45833C2.91667 6.97917 3.4838 7.59838 4.20139 8.31597C4.91898 9.02199 5.83333 9.87269 6.94444 10.8681Z" fill="black"/>
</svg>
