<svg width="30" height="31" viewBox="0 0 30 31" fill="none" xmlns="http://www.w3.org/2000/svg">
<path opacity="0.987" fill-rule="evenodd" clip-rule="evenodd" d="M13.0358 0.132891C14.6218 -0.0442969 15.5602 -0.0442969 17.2643 0.132891C20.2807 0.579349 23.0769 1.97364 25.2487 4.11414C23.7811 5.50131 22.3328 6.90874 20.9043 8.33602C18.1684 6.01727 15.1147 5.48206 11.743 6.73039C9.2697 7.86789 7.5474 9.71122 6.57615 12.2604C4.98899 11.0788 3.42251 9.86963 1.8774 8.63352C1.77003 8.57699 1.64738 8.5563 1.5274 8.57445C3.98178 3.84216 7.8172 1.02758 13.0337 0.130703" fill="#F44336"/>
<path opacity="0.997" fill-rule="evenodd" clip-rule="evenodd" d="M1.52305 8.57448C1.64701 8.55552 1.76441 8.57521 1.87524 8.63354C3.42034 9.86965 4.98683 11.0788 6.57399 12.2604C6.32423 13.2537 6.16679 14.2679 6.10368 15.2901C6.15764 16.2789 6.31441 17.2494 6.57399 18.2017L1.64118 22.1282C-0.506949 17.6395 -0.546324 13.1216 1.52305 8.57448Z" fill="#FFC107"/>
<path opacity="0.999" fill-rule="evenodd" clip-rule="evenodd" d="M25.0146 26.8838C23.4787 25.5293 21.8707 24.2587 20.1978 23.0776C21.8749 21.8934 22.8928 20.2688 23.2515 18.2038H15.0331V12.4966C19.7727 12.4572 24.5101 12.4974 29.2453 12.6169C30.1436 17.4951 29.106 21.8934 26.1325 25.8119C25.7789 26.1878 25.4043 26.5455 25.0146 26.8838Z" fill="#448AFF"/>
<path opacity="0.993" fill-rule="evenodd" clip-rule="evenodd" d="M6.57399 18.2039C8.36774 22.662 11.6563 24.743 16.4396 24.447C17.7824 24.2915 19.0697 23.8225 20.1977 23.0776C21.8719 24.2618 23.4775 25.5305 25.0146 26.8839C22.5792 29.0724 19.4739 30.3709 16.2055 30.5676C15.463 30.627 14.7169 30.627 13.9743 30.5676C8.40638 29.9114 4.29534 27.0982 1.64117 22.1282L6.57399 18.2039Z" fill="#43A047"/>
</svg>
