<svg width="68" height="76" viewBox="0 0 68 76" fill="none" xmlns="http://www.w3.org/2000/svg">
<path d="M33.75 0C42.7011 0 51.2855 3.55579 57.6149 9.88515C63.9442 16.2145 67.5 24.7989 67.5 33.75C67.5 45.2775 61.215 54.7125 54.5925 61.4813C51.2838 64.8265 47.6735 67.8593 43.8075 70.5413L42.21 71.6287L41.46 72.1275L40.0462 73.0275L38.7863 73.7962L37.2262 74.7038C36.1674 75.3081 34.9692 75.626 33.75 75.626C32.5308 75.626 31.3326 75.3081 30.2738 74.7038L28.7137 73.7962L26.7638 72.5962L26.0437 72.1275L24.5062 71.1038C20.3356 68.282 16.4509 65.0591 12.9075 61.4813C6.285 54.7088 0 45.2775 0 33.75C0 24.7989 3.55579 16.2145 9.88515 9.88515C16.2145 3.55579 24.7989 0 33.75 0ZM33.75 22.5C32.2726 22.5 30.8097 22.791 29.4448 23.3564C28.0799 23.9217 26.8397 24.7504 25.795 25.795C24.7504 26.8397 23.9217 28.0799 23.3564 29.4448C22.791 30.8097 22.5 32.2726 22.5 33.75C22.5 35.2274 22.791 36.6903 23.3564 38.0552C23.9217 39.4201 24.7504 40.6603 25.795 41.705C26.8397 42.7496 28.0799 43.5783 29.4448 44.1436C30.8097 44.709 32.2726 45 33.75 45C36.7337 45 39.5952 43.8147 41.705 41.705C43.8147 39.5952 45 36.7337 45 33.75C45 30.7663 43.8147 27.9048 41.705 25.795C39.5952 23.6853 36.7337 22.5 33.75 22.5Z" fill="#1E1E1E"/>
</svg>
