<svg width="29" height="26" viewBox="0 0 29 26" fill="none" xmlns="http://www.w3.org/2000/svg">
<path d="M14.25 25.3397L13.0498 24.2551C10.4658 21.8949 8.32834 19.8745 6.63734 18.1941C4.94739 16.5126 3.61317 15.0295 2.63467 13.7449C1.65617 12.4603 0.972171 11.2992 0.582671 10.2616C0.193171 9.22397 -0.00105128 8.17844 4.27928e-06 7.125C4.27928e-06 5.111 0.684004 3.42 2.052 2.052C3.42 0.684 5.111 0 7.125 0C8.51834 0 9.82459 0.35625 11.0438 1.06875C12.2629 1.78125 13.3317 2.81781 14.25 4.17842C15.1683 2.81781 16.2371 1.78125 17.4563 1.06875C18.6754 0.35625 19.9817 0 21.375 0C23.389 0 25.08 0.684 26.448 2.052C27.816 3.42 28.5 5.111 28.5 7.125C28.5 8.17633 28.3058 9.22133 27.9173 10.26C27.5278 11.3008 26.8438 12.4629 25.8653 13.7465C24.8868 15.0301 23.5574 16.5126 21.8769 18.1941C20.1965 19.8745 18.0537 21.8949 15.4486 24.2551L14.25 25.3397ZM14.25 23.1958C16.7833 20.9053 18.8681 18.9441 20.5042 17.3122C22.1403 15.6803 23.4333 14.2632 24.3833 13.0609C25.3333 11.8586 25.9931 10.7952 26.3625 9.8705C26.7319 8.94372 26.9167 8.02855 26.9167 7.125C26.9167 5.54167 26.3889 4.22222 25.3333 3.16667C24.2778 2.11111 22.9583 1.58333 21.375 1.58333C20.1147 1.58333 18.9514 1.94328 17.8853 2.66317C16.8192 3.38306 15.8661 4.46658 15.0258 5.91375H13.4773C12.615 4.44653 11.656 3.35772 10.6004 2.64733C9.54487 1.938 8.38692 1.58333 7.12659 1.58333C5.56437 1.58333 4.2502 2.11111 3.18409 3.16667C2.11798 4.22222 1.58439 5.54167 1.58334 7.125C1.58334 8.02855 1.76806 8.94372 2.1375 9.8705C2.50695 10.7973 3.16667 11.8608 4.11667 13.0609C5.06667 14.2611 6.35973 15.6729 7.99584 17.2963C9.63195 18.9198 11.7167 20.8863 14.25 23.1958Z" fill="#FEFEFA"/>
</svg>
