<svg width="38" height="38" viewBox="0 0 38 38" fill="none" xmlns="http://www.w3.org/2000/svg">
<path d="M9.7105 33.25C7.84534 33.25 6.33325 31.6983 6.33325 29.7825V15.846C6.33325 14.7931 6.80034 13.7956 7.59992 13.1385L16.8893 5.51001C17.4829 5.01852 18.2293 4.74957 18.9999 4.74957C19.7705 4.74957 20.517 5.01852 21.1105 5.51001L30.3983 13.1385C31.1995 13.7956 31.6666 14.7931 31.6666 15.846V29.7825C31.6666 31.6983 30.1545 33.25 28.2893 33.25H9.7105Z" stroke="white" stroke-width="1.5" stroke-linecap="round" stroke-linejoin="round"/>
<path d="M15.0415 33.25V24.5417C15.0415 23.7018 15.3751 22.8964 15.969 22.3025C16.5629 21.7086 17.3683 21.375 18.2082 21.375H19.7915C20.6314 21.375 21.4368 21.7086 22.0307 22.3025C22.6245 22.8964 22.9582 23.7018 22.9582 24.5417V33.25" stroke="white" stroke-width="1.5" stroke-linecap="round" stroke-linejoin="round"/>
</svg>
