<svg width="27" height="27" viewBox="0 0 27 27" fill="none" xmlns="http://www.w3.org/2000/svg">
<path d="M0.75 22.9166C0.75 21.2369 1.41726 19.626 2.60499 18.4383C3.79272 17.2506 5.40363 16.5833 7.08333 16.5833H19.75C21.4297 16.5833 23.0406 17.2506 24.2283 18.4383C25.4161 19.626 26.0833 21.2369 26.0833 22.9166C26.0833 23.7565 25.7497 24.562 25.1558 25.1558C24.562 25.7497 23.7565 26.0833 22.9167 26.0833H3.91667C3.07681 26.0833 2.27136 25.7497 1.6775 25.1558C1.08363 24.562 0.75 23.7565 0.75 22.9166Z" stroke="#FEFEFA" stroke-width="1.5" stroke-linejoin="round"/>
<path d="M13.4167 10.25C16.0401 10.25 18.1667 8.12335 18.1667 5.5C18.1667 2.87665 16.0401 0.75 13.4167 0.75C10.7934 0.75 8.66675 2.87665 8.66675 5.5C8.66675 8.12335 10.7934 10.25 13.4167 10.25Z" stroke="#FEFEFA" stroke-width="1.5"/>
</svg>
