<svg width="90" height="90" viewBox="0 0 90 90" fill="none" xmlns="http://www.w3.org/2000/svg">
<path d="M24.1087 9.04874C24.5815 8.48447 24.8141 7.75732 24.7568 7.0234C24.6995 6.28947 24.3567 5.60729 23.802 5.12329C23.2473 4.63929 22.525 4.39207 21.79 4.43468C21.0551 4.4773 20.3662 4.80637 19.8712 5.35124L15.0262 10.9012C12.2788 14.0496 10.7258 18.0636 10.6387 22.2412L10.4249 32.4375C10.4095 33.1834 10.691 33.9049 11.2076 34.4433C11.7241 34.9816 12.4334 35.2927 13.1793 35.3081C13.9252 35.3235 14.6467 35.042 15.1851 34.5255C15.7234 34.0089 16.0345 33.2997 16.0499 32.5537L16.2599 22.3612C16.3201 19.5027 17.3833 16.7563 19.2637 14.6025L24.1087 9.04874Z" fill="black"/>
<path fill-rule="evenodd" clip-rule="evenodd" d="M23.3888 28.875C23.6406 24.863 25.412 21.0978 28.3423 18.3459C31.2725 15.594 35.1414 14.0622 39.1613 14.0625H41.2501V11.25C41.2501 10.2554 41.6451 9.30161 42.3484 8.59835C43.0517 7.89509 44.0055 7.5 45.0001 7.5C45.9946 7.5 46.9484 7.89509 47.6517 8.59835C48.355 9.30161 48.7501 10.2554 48.7501 11.25V14.0625H50.8388C54.8587 14.0622 58.7276 15.594 61.6578 18.3459C64.5881 21.0978 66.3595 24.863 66.6113 28.875L67.4401 42.1275C67.7604 47.1796 69.4566 52.0477 72.3451 56.205C72.9427 57.064 73.3078 58.063 73.405 59.1049C73.5022 60.1468 73.3281 61.1962 72.8996 62.1509C72.4712 63.1055 71.8029 63.9331 70.9599 64.5531C70.1169 65.173 69.1278 65.5643 68.0888 65.6888L55.3126 67.2187V71.25C55.3126 73.985 54.2261 76.6081 52.2921 78.542C50.3581 80.476 47.7351 81.5625 45.0001 81.5625C42.265 81.5625 39.642 80.476 37.708 78.542C35.774 76.6081 34.6876 73.985 34.6876 71.25V67.2187L21.9113 65.685C20.8729 65.5602 19.8845 65.1689 19.042 64.5492C18.1995 63.9294 17.5316 63.1023 17.1033 62.1482C16.6749 61.1941 16.5006 60.1454 16.5973 59.104C16.6939 58.0626 17.0583 57.0639 17.6551 56.205C20.5435 52.0477 22.2397 47.1796 22.5601 42.1275L23.3888 28.875ZM40.3126 71.25C40.3126 72.4932 40.8064 73.6855 41.6855 74.5646C42.5646 75.4436 43.7569 75.9375 45.0001 75.9375C46.2433 75.9375 47.4355 75.4436 48.3146 74.5646C49.1937 73.6855 49.6876 72.4932 49.6876 71.25V68.4375H40.3126V71.25Z" fill="black"/>
<path d="M66.1612 5.08126C65.5994 5.57167 65.2554 6.26511 65.2047 7.00911C65.1541 7.75312 65.401 8.48677 65.8912 9.04876L70.7362 14.5988C72.616 16.7541 73.678 19.5019 73.7362 22.3613L73.9499 32.55C73.9576 32.9194 74.0379 33.2836 74.1863 33.6219C74.3347 33.9602 74.5483 34.266 74.8148 34.5217C75.0814 34.7775 75.3957 34.9783 75.7399 35.1125C76.084 35.2468 76.4512 35.312 76.8206 35.3044C77.1899 35.2968 77.5541 35.2164 77.8924 35.0681C78.2308 34.9197 78.5365 34.7061 78.7923 34.4395C79.0481 34.173 79.2488 33.8586 79.3831 33.5145C79.5174 33.1703 79.5826 32.8031 79.5749 32.4338L79.3612 22.2413C79.2741 18.0637 77.721 14.0496 74.9737 10.9013L70.1287 5.35126C69.6383 4.78947 68.9449 4.44543 68.2009 4.3948C67.4568 4.34417 66.7232 4.59109 66.1612 5.08126Z" fill="black"/>
</svg>
