<svg width="18" height="18" viewBox="0 0 18 18" fill="none" xmlns="http://www.w3.org/2000/svg">
<path fill-rule="evenodd" clip-rule="evenodd" d="M10.5748 1.7932C11.1246 1.25433 11.865 0.954245 12.6348 0.958168C13.4047 0.962091 14.142 1.2697 14.6863 1.81415C15.2307 2.3586 15.5381 3.09588 15.5419 3.86577C15.5457 4.63566 15.2455 5.37593 14.7065 5.9257L9.01102 11.6212C8.69002 11.9422 8.49352 12.1387 8.27602 12.309C8.01845 12.5096 7.73981 12.6816 7.44502 12.822C7.19452 12.9412 6.93127 13.0289 6.50077 13.1722L4.49677 13.8405L4.01527 14.0009C3.80403 14.0715 3.57731 14.0818 3.36054 14.0307C3.14377 13.9796 2.94552 13.8692 2.78804 13.7117C2.63056 13.5542 2.52008 13.3559 2.46898 13.1392C2.41788 12.9224 2.4282 12.6957 2.49877 12.4845L3.32752 9.99895C3.47077 9.56845 3.55852 9.3052 3.67777 9.0547C3.8184 8.76014 3.99066 8.48175 4.19152 8.22445C4.36177 8.0062 4.55752 7.8097 4.87852 7.48945L10.5748 1.7932ZM4.46977 12.6637L3.83677 12.0292L4.38277 10.3905C4.54177 9.91345 4.60777 9.7192 4.69327 9.5392C4.79927 9.3177 4.92752 9.1102 5.07802 8.9167C5.20102 8.7592 5.34502 8.6137 5.70052 8.25745L10.1188 3.83995C10.3483 4.41351 10.6926 4.93415 11.1305 5.36995C11.5664 5.80757 12.087 6.1516 12.6605 6.38095L8.24227 10.7985C7.88602 11.1547 7.74127 11.2987 7.58377 11.4209C7.38977 11.5719 7.18227 11.7004 6.96127 11.8064C6.78127 11.8919 6.58627 11.958 6.10927 12.117L4.46977 12.6637ZM13.5568 5.48395C13.4412 5.45846 13.3273 5.42615 13.2155 5.3872C12.7291 5.21816 12.2879 4.94006 11.9255 4.5742C11.5605 4.21119 11.2825 3.77013 11.1125 3.2842C11.0733 3.17247 11.0408 3.05853 11.015 2.94295L11.3698 2.58895C11.7086 2.26107 12.1627 2.07948 12.6342 2.08335C13.1056 2.08722 13.5567 2.27622 13.8901 2.60962C14.2235 2.94301 14.4125 3.39408 14.4164 3.86555C14.4202 4.33703 14.2386 4.79113 13.9108 5.12995L13.5568 5.48395ZM2.43727 16.5C2.43727 16.3508 2.49653 16.2077 2.60202 16.1022C2.70751 15.9967 2.85058 15.9375 2.99977 15.9375H14.9998V17.0625H2.99977C2.85058 17.0625 2.70751 17.0032 2.60202 16.8977C2.49653 16.7922 2.43727 16.6491 2.43727 16.5Z" fill="#6D6D6D"/>
</svg>
