<svg width="68" height="68" viewBox="0 0 68 68" fill="none" xmlns="http://www.w3.org/2000/svg">
<path fill-rule="evenodd" clip-rule="evenodd" d="M18.75 15C18.75 11.0218 20.3304 7.20644 23.1434 4.3934C25.9564 1.58035 29.7718 0 33.75 0C37.7282 0 41.5436 1.58035 44.3566 4.3934C47.1696 7.20644 48.75 11.0218 48.75 15C48.75 18.9782 47.1696 22.7936 44.3566 25.6066C41.5436 28.4196 37.7282 30 33.75 30C29.7718 30 25.9564 28.4196 23.1434 25.6066C20.3304 22.7936 18.75 18.9782 18.75 15ZM18.75 37.5C13.7772 37.5 9.00805 39.4754 5.49175 42.9917C1.97544 46.5081 0 51.2772 0 56.25C0 59.2337 1.18526 62.0952 3.29505 64.205C5.40483 66.3147 8.26631 67.5 11.25 67.5H56.25C59.2337 67.5 62.0952 66.3147 64.205 64.205C66.3147 62.0952 67.5 59.2337 67.5 56.25C67.5 51.2772 65.5246 46.5081 62.0083 42.9917C58.4919 39.4754 53.7228 37.5 48.75 37.5H18.75Z" fill="#1E1E1E"/>
</svg>
