<svg width="24" height="24" viewBox="0 0 24 24" fill="none" xmlns="http://www.w3.org/2000/svg">
<path d="M20 18V10C20 8.114 20 7.171 19.414 6.586C18.828 6 17.886 6 16 6H4V18C4 19.885 4 20.828 4.586 21.414C5.172 22 6.114 22 8 22H16C17.886 22 18.828 22 19.414 21.414C20 20.828 20 19.885 20 18Z" stroke="#FF4F0F" stroke-width="1.5" stroke-linecap="round" stroke-linejoin="round"/>
<path d="M12 11C12.7956 11 13.5587 11.3161 14.1213 11.8787C14.6839 12.4413 15 13.2044 15 14M12 11C11.2044 11 10.4413 11.3161 9.87868 11.8787C9.31607 12.4413 9 13.2044 9 14M12 11V10M15 14H9M15 14H16M9 14H8M8 18H16M4 6.00001L11.385 2.90601C13.034 2.21501 13.858 1.86901 14.515 2.04601C14.941 2.16048 15.3172 2.41256 15.585 2.76301C16 3.30501 16 4.20301 16 6.00001" stroke="#FF4F0F" stroke-width="1.5" stroke-linecap="round" stroke-linejoin="round"/>
</svg>
