<svg width="22" height="22" viewBox="0 0 22 22" fill="none" xmlns="http://www.w3.org/2000/svg">
<path d="M0.75 10.75C0.75 16.273 5.227 20.75 10.75 20.75C16.273 20.75 20.75 16.273 20.75 10.75C20.75 5.227 16.273 0.75 10.75 0.75C5.227 0.75 0.75 5.227 0.75 10.75Z" stroke="#FF4F0F" stroke-width="1.5" stroke-linecap="round" stroke-linejoin="round"/>
<path d="M11.7499 0.799988C11.7499 0.799988 14.7499 4.74999 14.7499 10.75C14.7499 16.75 11.7499 20.7 11.7499 20.7M9.74988 20.7C9.74988 20.7 6.74988 16.75 6.74988 10.75C6.74988 4.74999 9.74988 0.799988 9.74988 0.799988M1.37988 14.25H20.1199M1.37988 7.24999H20.1199" stroke="#FF4F0F" stroke-width="1.5" stroke-linecap="round" stroke-linejoin="round"/>
</svg>
